inDegrees=no
num_controls=7
num_derivatives=13
num_iterations=37
num_multipliers=7
num_parameters=0
num_slacks=7
num_states=26
objective=0.432775
objective_accelerations=0.055942
objective_balance=0.007303
objective_effort=0.034141
objective_height=0.334315
objective_ligament=0.001073
solver_duration=602.024517
status=Solve_Succeeded
success=true
DataType=double
version=3
OpenSimVersion=4.5
endheader
time	/jointset/ground_pelvis/pelvis_tilt/value	/jointset/ground_pelvis/pelvis_tx/value	/jointset/ground_pelvis/pelvis_ty/value	/jointset/hip_l/hip_flexion_l/value	/jointset/hip_l/hip_adduction_l/value	/jointset/hip_l/hip_rotation_l/value	/jointset/back/lumbar_extension/value	/jointset/patellofemoral_l/patellar_flexion_l/value	/jointset/knee_l/knee_flexion_l/value	/jointset/knee_l/knee_adduction_l/value	/jointset/knee_l/knee_rotation_l/value	/jointset/ankle_l/ankle_angle_l/value	/jointset/subtalar_l/subtalar_angle_l/value	/jointset/ground_pelvis/pelvis_tilt/speed	/jointset/ground_pelvis/pelvis_tx/speed	/jointset/ground_pelvis/pelvis_ty/speed	/jointset/hip_l/hip_flexion_l/speed	/jointset/hip_l/hip_adduction_l/speed	/jointset/hip_l/hip_rotation_l/speed	/jointset/back/lumbar_extension/speed	/jointset/patellofemoral_l/patellar_flexion_l/speed	/jointset/knee_l/knee_flexion_l/speed	/jointset/knee_l/knee_adduction_l/speed	/jointset/knee_l/knee_rotation_l/speed	/jointset/ankle_l/ankle_angle_l/speed	/jointset/subtalar_l/subtalar_angle_l/speed	/forceset/tau_hip_flexion_l	/forceset/tau_hip_adduction_l	/forceset/tau_hip_rotation_l	/forceset/tau_knee_flexion_l	/forceset/tau_ankle_angle_l	/forceset/tau_subtalar_angle_l	/forceset/tau_lumbar_extension	lambda_cid13_p0	lambda_cid13_p1	lambda_cid13_p2	lambda_cid13_p3	lambda_cid13_p4	lambda_cid13_p5	lambda_cid14_p0	/jointset/ground_pelvis/pelvis_tilt/accel	/jointset/ground_pelvis/pelvis_tx/accel	/jointset/ground_pelvis/pelvis_ty/accel	/jointset/hip_l/hip_flexion_l/accel	/jointset/hip_l/hip_adduction_l/accel	/jointset/hip_l/hip_rotation_l/accel	/jointset/back/lumbar_extension/accel	/jointset/patellofemoral_l/patellar_flexion_l/accel	/jointset/knee_l/knee_flexion_l/accel	/jointset/knee_l/knee_adduction_l/accel	/jointset/knee_l/knee_rotation_l/accel	/jointset/ankle_l/ankle_angle_l/accel	/jointset/subtalar_l/subtalar_angle_l/accel	gamma_cid13_p0	gamma_cid13_p1	gamma_cid13_p2	gamma_cid13_p3	gamma_cid13_p4	gamma_cid13_p5	gamma_cid14_p0
0	-0.1438001217846807	0.05241968698748539	0.8974735608341132	0.3774924667018715	-0.2660243596027634	-0.1456056572300219	-0.01265067647494873	0.03223648243738281	0.03223648243721463	-0.1743863841382248	0.05301920505645824	-0.04231377076293093	-0.01766775429126537	0	0	0	0	0	0	0	0	0	0	0	0	0	0.09490003197524212	0.005765327378668467	-0.0192890907770672	-0.2446073271174428	0.2431954123087294	-0.068141506169829	-0.04828218135869116	35.87113880327419	21.91607713870507	-2.300728198944138	2.558465128148603	-594.6243793794946	-24.44324206375914	-35.92928252197698	-2.188613102846139	-1.546924747273273	-0.8517572289907187	10.67514926837692	-0.02266890243272023	2.581296846979049	-4.101295518984173	10.99713398920412	10.99713398920486	1.500364298340005	1.005933837360593	3.052250632119049	0.6442984325328645	2.014054639396399e-08	5.262767720335508e-07	-4.294478226200072e-07	3.975618908121754e-08	-1.004745187348454e-07	4.549355592039203e-07	8.119553837445454e-08
0.01	-0.1439126935505559	0.05234270421828813	0.8974307156202056	0.3780237479158136	-0.2660295101781095	-0.1454745912540855	-0.01287542981095038	0.03277694128381931	0.03277694128369978	-0.1743200327302742	0.05306508135391564	-0.04216596305169031	-0.01764059220945337	-0.02327604198640669	-0.01539103576370801	-0.008677971522322799	0.1069315366334802	-0.001382744595807106	0.02618496640509906	-0.0464635982570613	0.10788978263914	0.1078897826391377	0.01255084556682462	0.009174702239587487	0.02933592543246218	0.005035334310354696	0.1284113838203417	-0.007960328011406694	-0.02681063064653456	-0.296165872519045	0.3134920835943831	-0.07106798582107154	-0.073179094552993	58.54233305907991	20.38304755355235	-3.387674412564338	-12.44836916584613	-593.6540994191954	-28.51914528005552	-35.94563872278754	-2.511350020708314	-1.53435734198044	-0.8921765204535401	10.80345068653083	-0.2489777709011286	2.632952496671976	-5.145831628011425	10.65458616667514	10.65458616667444	1.024556915106676	0.8732519332903926	2.840420620186104	0.3735572133966142	-1.531965286619341e-08	3.264982047698164e-07	-1.766727623824678e-07	5.52254187611461e-08	-1.971191050231834e-07	2.281811848755799e-07	3.93720021645736e-08
0.02	-0.14428087579144	0.05211197822123215	0.8972978188097344	0.3796446034613547	-0.2660590683060436	-0.1450825044223271	-0.01361020705936724	0.03439023510979167	0.03439023510981186	-0.174149750421823	0.05320270737714775	-0.04173156466186053	-0.01757499552792193	-0.05112209493842446	-0.03074864557174144	-0.01801031931267692	0.2179148662946583	-0.004881510501746836	0.0522041711860402	-0.1020047824714032	0.2145669958945433	0.2145669958945352	0.0207861803037191	0.01834994512051697	0.05731813571993033	0.007686919945027508	0.1619227356685664	-0.02168598340074742	-0.03433217051499996	-0.3477244179194336	0.3837887548805394	-0.07399446547150304	-0.09807600774506776	81.30059067462615	18.83674746114289	-4.474757724250363	-27.67117740277637	-591.3926426249042	-32.49316799525823	-35.99467649724792	-3.102615295962394	-1.54023955614323	-0.9826324825972242	11.48550787391685	-0.4458731644609781	2.548144522146896	-5.916812710437009	10.75462011245774	10.75462011245778	0.6372621323508657	1.0060419656298	2.781507603114325	0.1675486973934436	-5.077985212635081e-08	1.26719637506082e-07	7.610229785507163e-08	7.069464844107465e-08	-2.937636913115214e-07	1.426810547239455e-09	-2.451534045307347e-09
0.03	-0.144938227725709	0.05172879891448239	0.8970696576362113	0.3823804385871419	-0.2661314048723159	-0.1444335190268561	-0.01492326553522015	0.03706273084353339	0.03706273084340083	-0.1739139645366232	0.05343358550857186	-0.04102217748175274	-0.01749163080064897	-0.07989326729388198	-0.04578755006386052	-0.02759697784988516	0.3284285679039433	-0.009660384477487112	0.07751074952364363	-0.1598755913161858	0.3195736298649872	0.3195736298649761	0.0261415597663034	0.02779416355821462	0.08453529594799189	0.008904129711444046	0.1465355906415879	-0.01696319924039818	-0.03121113702841621	-0.3274693762107432	0.3566997505734422	-0.07194219919842229	-0.08628208595417797	72.68163228565041	19.02863044491671	-4.018830644389509	-22.63811885890266	-590.8858553120082	-31.32210812453658	-36.0754736993167	-2.696111092434859	-1.470751849373725	-0.9430010517807011	10.71075997057285	-0.5051031817945845	2.509581640927043	-5.612516755748485	10.31990755399768	10.31990755399738	0.45028846405779	0.9088774202643493	2.688218960550183	0.08649484689054557	-7.553430631146437e-08	4.261903096278468e-08	2.661822148578919e-07	7.579753060162829e-08	-3.99713708777058e-07	-1.576996761494308e-07	-2.980183893349249e-08
0.04	-0.1458696399612562	0.0511982233720771	0.8967463661747963	0.3861967024622532	-0.2662537719119505	-0.1435339344178112	-0.01679309245644958	0.04077453741983939	0.04077453741984544	-0.1736315023350944	0.05375795895231295	-0.04004133895378587	-0.01739855642959525	-0.1059341551321021	-0.06022789270284353	-0.03703637689100111	0.4340006161585688	-0.01488760515999092	0.1023240139156124	-0.213358471530498	0.4224291644218537	0.4224291644218419	0.03012144366267658	0.0370490074929021	0.111608405291952	0.009628848702793527	0.1311484456166438	-0.01224041507951585	-0.02809010353960311	-0.307214334501369	0.3296107462667351	-0.06988993292476492	-0.07448816416192398	64.14560843156021	19.20778313097394	-3.562916383706252	-17.8157751395127	-589.1690171431563	-30.05421383905543	-36.18629347534488	-2.556558392508979	-1.420527185520371	-0.9531805833790115	10.49717720298536	-0.5355425058154777	2.449481733019615	-5.039226984339755	10.32440022974319	10.32440022974371	0.3621630191053593	0.9681670650283735	2.752697426288727	0.06905054237703324	-1.000680234847214e-07	-3.909646298833864e-08	4.549694484950477e-07	8.06866736380711e-08	-5.058555908029492e-07	-3.154317734103965e-07	-5.685372668102412e-08
0.05	-0.1470519051530938	0.05052597957287517	0.8963290859664199	0.391048001694819	-0.2664280598897926	-0.1423897423708434	-0.01917950561403215	0.04550242520628724	0.04550242520623662	-0.1733115887444963	0.05417396790020147	-0.03879166572663602	-0.01729844939790709	-0.1304266167608058	-0.07414333402772286	-0.04641888837790203	0.5357437527630495	-0.0197938330304018	0.126315426796243	-0.2636082003131383	0.5225524219563277	0.5225524219563124	0.0340644162261812	0.04611178068388614	0.138161379441286	0.01052282864250052	0.1263012016247889	-0.01083031756325523	-0.02740327748258715	-0.3037848126870614	0.3245245702797493	-0.06881706174986575	-0.07051571492431818	62.59502895267656	18.9553369858717	-3.456428160587221	-17.22249496929091	-588.5881126877832	-30.00427201677216	-36.32473527890701	-2.381749800638133	-1.365406473919639	-0.9307719997728673	9.935550542914688	-0.4417943387919788	2.344048745952477	-4.970451868099934	9.766904470183301	9.766904470182448	0.4408874260198808	0.8691064739461603	2.581871527060093	0.1190655324704567	-1.018898482472137e-07	-2.662261816225153e-08	3.717034015208754e-07	9.704444195163976e-08	-5.832340647601224e-07	-2.431384334814508e-07	-4.532144083720771e-08
0.06	-0.148476326911983	0.04971691058682624	0.8958179835294747	0.3969012660242633	-0.2666461364286326	-0.1410116206590518	-0.02205893726804379	0.05121366875908899	0.05121366875908624	-0.1729461408181802	0.0546793593857005	-0.03728140793442578	-0.01718550380428593	-0.1543654684919809	-0.08759293007224274	-0.05580082260477297	0.6343936355167773	-0.02364531734648728	0.1491099468915802	-0.3119621708103115	0.6191003176861911	0.619100317686169	0.03922831083152224	0.05492551498739428	0.1637253183027777	0.01219656109027169	0.1214539576353417	-0.009420220046628536	-0.02671645142464957	-0.3003552908719267	0.3194383942930634	-0.06774419057455357	-0.06654326568488472	61.11911007554375	18.69097446579897	-3.349358717052916	-16.82462518698536	-586.9180560383596	-29.86509443466163	-36.48786048370791	-2.44583641299752	-1.327358129452502	-0.9530651313732381	9.878526432835221	-0.32459379495187	2.210103175960745	-4.660075327243422	9.609327868822085	9.609327868821936	0.6063474274700081	0.9183592875336624	2.554890368715455	0.2250010439872995	-1.027553828029371e-07	-1.018290644028183e-08	2.769824795735945e-07	1.138850997505611e-07	-6.594014478512442e-07	-1.611598119866141e-07	-3.216455821059769e-08
0.07000000000000001	-0.1501376960836209	0.04877538869384684	0.8952126276070994	0.4037275632431596	-0.2668986614976657	-0.1394105535191793	-0.02541218169644557	0.05787477355891079	0.05787477355886172	-0.1725250567984922	0.05527151649060036	-0.03552002538596154	-0.01705302893777597	-0.1777923594648714	-0.1006577720727576	-0.06530386348407936	0.7304223989026591	-0.02682115084232956	0.1710368688209895	-0.3584013204030493	0.7126384272747913	0.7126384272747638	0.04493792367155441	0.06338818629111249	0.1883869631906041	0.01429140252400249	0.1152347594817625	-0.007702462079285199	-0.02569029366929684	-0.2950166351283903	0.3110452728088055	-0.06638095625948992	-0.06173842175867452	58.59905899277894	18.44347218923739	-3.19945530152405	-15.4824397809168	-584.8575221055964	-29.56620082708977	-36.67221023121835	-2.273707740773646	-1.287972797205744	-0.9540816123345111	9.398533494148007	-0.3083189244663379	2.173949139361876	-4.593025600365261	9.153726529808532	9.153726529807708	0.5457122214086109	0.7925179557111063	2.397165870893889	0.2006453605488524	-1.022158842605838e-07	-5.421575224164161e-08	2.648927071557335e-07	1.164094288731165e-07	-6.889112773295739e-07	-1.582595566929452e-07	-3.188173815644784e-08
